<svg xmlns="http://www.w3.org/2000/svg" xmlns:xlink="http://www.w3.org/1999/xlink" width="193" height="26"><defs><path id="a" d="M0 0h16.716v23.475H0z"/></defs><g fill="none" fill-rule="evenodd"><path fill="#686868" d="M28.57 12.957v.001h4.569C33.139 5.798 27.342 0 20.185 0c-4.678 0-8.761 2.483-11.04 6.191V0H4.572L0 4.572h4.571v21.343h4.575V19.72a12.88 12.88 0 0 1-1.922-6.762c0-2.695 1.007-5.151 2.655-7.03l.125-.135c.23-.255.47-.496.723-.726.053-.045.103-.093.155-.14.278-.242.566-.472.87-.685.024-.017.045-.036.07-.053.337-.236.69-.452 1.055-.647.014-.007.03-.013.044-.022.328-.172.67-.327 1.016-.465.104-.043.21-.08.316-.118a9.39 9.39 0 0 1 .814-.258 8.12 8.12 0 0 1 .387-.1c.278-.063.557-.117.841-.16.123-.018.243-.04.366-.056.406-.046.816-.075 1.235-.075.62 0 1.225.06 1.817.162.077.014.155.02.231.033.102.021.2.052.3.074.885.198 1.73.498 2.514.9.003.003.006.003.01.006.288.147.568.306.84.481.024.015.046.033.07.05.248.16.494.33.728.512l.061.049c.235.185.464.376.684.582.018.015.034.037.054.051.217.207.428.419.627.64.023.027.042.054.065.08.193.217.378.44.552.675.074.1.139.208.212.31.112.164.23.324.337.496.105.176.199.362.298.545.055.105.119.206.173.315.099.204.184.413.27.626.042.092.087.182.124.279.113.298.214.603.3.914.003.01.008.02.009.031.18.644.299 1.311.355 2 .03.282.044.568.044.858m16.728 3.81h-7.627l7.627-7.616v7.616zm4.567 0V0h-.761L28.523 20.58h16.776v5.338h4.567V20.58H55.2v-3.813h-5.335z"/><path fill="#FF7800" d="M28.522 20.578l4.126-4.126c.312-1.115.49-2.281.49-3.495h-4.567a8.386 8.386 0 0 1-8.386 8.384 8.384 8.384 0 0 1-8.386-8.384 8.386 8.386 0 1 1 16.726-.863c-.439-5.485-5.023-9.807-10.63-9.807-5.898 0-10.671 4.78-10.671 10.67 0 7.155 5.8 12.96 12.961 12.96 4.305 0 8.105-2.107 10.461-5.34h-2.124z"/><path fill="#686868" d="M69.226.654H73.6v15.193c0 2.418-.192 4.115-.576 5.09a4.827 4.827 0 0 1-1.898 2.327c-.882.577-1.94.865-3.176.865-2.522 0-4.67-1.106-6.445-3.316l3.145-2.943c.695.79 1.287 1.318 1.774 1.589.487.27.96.404 1.417.404.466 0 .814-.197 1.043-.59.228-.395.342-1.262.342-2.601V.654zm15.569 9.527c-1.32 0-2.42.459-3.298 1.377-.88.919-1.317 2.094-1.317 3.527 0 1.472.434 2.666 1.302 3.58.868.913 1.966 1.37 3.297 1.37 1.332 0 2.438-.462 3.323-1.386.881-.923 1.323-2.111 1.323-3.564 0-1.453-.434-2.634-1.302-3.542-.867-.908-1.976-1.362-3.328-1.362m-.07-4.001c1.599 0 3.099.4 4.507 1.199 1.407.8 2.503 1.883 3.293 3.253a8.762 8.762 0 0 1 1.183 4.436c0 1.6-.398 3.094-1.191 4.483a8.582 8.582 0 0 1-3.246 3.262c-1.37.784-2.88 1.176-4.53 1.176-2.43 0-4.503-.864-6.22-2.593-1.718-1.727-2.575-3.826-2.575-6.296 0-2.647.97-4.852 2.911-6.616 1.701-1.536 3.657-2.304 5.868-2.304m19.546 3.923c-1.339 0-2.45.457-3.331 1.37-.882.914-1.323 2.107-1.323 3.58 0 1.504.44 2.722 1.323 3.65.881.93 1.992 1.394 3.331 1.394 1.298 0 2.389-.472 3.278-1.417.886-.944 1.33-2.147 1.33-3.612 0-1.452-.436-2.643-1.308-3.573-.872-.928-1.971-1.392-3.3-1.392zM99.804.078v8.406c.767-.767 1.598-1.344 2.49-1.728a7.184 7.184 0 0 1 2.865-.575c2.21 0 4.089.835 5.634 2.506 1.547 1.67 2.32 3.813 2.32 6.428 0 2.522-.8 4.631-2.397 6.328-1.598 1.697-3.492 2.546-5.682 2.546a7.046 7.046 0 0 1-2.724-.522c-.841-.347-1.677-.916-2.506-1.704v1.79h-4.219V.078h4.219zm27.385 13.45v5.869h1.092c1.81 0 3.032-.23 3.66-.685.63-.457.945-1.121.945-1.992 0-.986-.37-1.765-1.109-2.337-.738-.57-1.966-.855-3.683-.855h-.905zm0-8.718v4.826h.953c1.062 0 1.852-.223 2.367-.67.516-.446.773-1.053.773-1.82 0-.717-.244-1.285-.734-1.705-.49-.42-1.235-.631-2.234-.631h-1.125zm-4.359 18.743V.653h3.6c2.088 0 3.616.135 4.582.405 1.372.364 2.463 1.039 3.274 2.025.81.986 1.215 2.147 1.215 3.486 0 .872-.185 1.664-.552 2.374-.37.71-.969 1.378-1.799 2 1.39.654 2.409 1.472 3.052 2.452.643.981.965 2.141.965 3.479 0 1.288-.333 2.46-.998 3.52-.665 1.058-1.521 1.85-2.571 2.372-1.05.524-2.498.787-4.347.787h-6.42zm24.465-13.45c-1.313 0-2.404.464-3.273 1.392-.868.93-1.303 2.121-1.303 3.573 0 1.465.44 2.668 1.326 3.612.884.945 1.973 1.417 3.265 1.417 1.334 0 2.442-.464 3.32-1.393.88-.93 1.32-2.147 1.32-3.651 0-1.473-.44-2.666-1.32-3.58-.878-.913-1.99-1.37-3.335-1.37zm4.468-3.487h4.25v16.937h-4.25v-1.79c-.83.788-1.661 1.357-2.495 1.704a6.989 6.989 0 0 1-2.714.522c-2.188 0-4.08-.849-5.675-2.546-1.596-1.697-2.394-3.806-2.394-6.328 0-2.615.772-4.757 2.317-6.428 1.544-1.671 3.42-2.506 5.627-2.506 1.016 0 1.97.192 2.861.575.892.384 1.716.961 2.473 1.728V6.616zm6.951 0h4.25V8.35c.963-.812 1.836-1.377 2.619-1.695a6.326 6.326 0 0 1 2.402-.476c1.678 0 3.103.586 4.274 1.76.985.996 1.476 2.469 1.476 4.42v11.193h-4.2v-7.417c0-2.022-.092-3.364-.273-4.026-.182-.666-.498-1.17-.949-1.517-.45-.348-1.006-.522-1.669-.522-.858 0-1.597.29-2.212.863-.617.577-1.044 1.372-1.282 2.388-.125.529-.186 1.673-.186 3.435v6.796h-4.25V6.616z"/><g transform="translate(176.284 .078)"><mask id="b" fill="#fff"><use xlink:href="#a"/></mask><path fill="#686868" d="M0 0h4.25v13.52l6.257-6.982h5.338l-7.296 8.117 8.168 8.82h-5.276L4.25 15.669v7.806H0z" mask="url(#b)"/></g></g></svg>