<svg width="104" height="41" viewBox="0 0 104 41" fill="none" xmlns="http://www.w3.org/2000/svg">
<path d="M103.893 11.9644L98.8227 7.30864L94.503 6.55785L93.5948 2.40294L87.0077 0L81.4368 8.91087L79.4056 9.03992L78.5258 12.9517L73.9703 14.4606L74.5352 17.0425L72.8259 19.3168L70.5159 16.1915L64.9734 21.1049L61.8197 25.2314L51.3208 28.3421L48.0522 36.3379L43.5252 34.8789L38.9555 35.4012L45.2061 40.7793L49.6187 39.2558L53.9027 39.7209L56.3556 36.7311L61.7767 35.9231L66.3967 38.2116L68.1702 36.7956L72.2037 36.8456L74.4707 33.6845L73.9273 31.9825L76.4804 29.78L76.0798 27.4124L78.7904 26.0394L79.9921 18.4873L81.6227 17.0925H90.7268L93.1082 18.4013L99.7379 17.0352L96.9701 13.5025L103.893 11.9644ZM22.9929 27.9627L23.3362 24.0582L22.3561 22.5635L23.1142 14.9322L20.7827 10.7631L16.6777 7.38007L15.0759 4.98444L10.656 7.9738L9.81912 6.97261L5.48524 7.89507L6.29325 4.53396L1.2873 2.48857L0 4.3765L1.39444 12.5224L2.62452 14.4245L2.51738 18.2365L7.7165 25.703L9.16857 29.8725L10.7347 30.5446L22.4994 38.0825L29.1291 38.7335L26.6616 32.3899L22.9929 27.9627Z" fill="#00B47E"/>
</svg>
